<svg height="512pt" viewBox="0 0 512 512" width="512pt" xmlns="http://www.w3.org/2000/svg"><path d="m512 256c0 141.386719-114.613281 256-256 256s-256-114.613281-256-256 114.613281-256 256-256 256 114.613281 256 256zm0 0" fill="#262b3b"/><path d="m.140625 247.921875c-.0859375 2.683594-.140625 5.375-.140625 8.078125 0 20.0625 2.3125 39.582031 6.679688 58.316406 40.597656 29.960938 90.144531 46.65625 141.738281 46.65625h215.164062c51.59375 0 101.140625-16.699218 141.738281-46.65625 4.367188-18.734375 6.679688-38.253906 6.679688-58.316406 0-2.703125-.054688-5.394531-.140625-8.078125zm0 0" fill="#f2ede1"/><g fill="#f9b721"><path d="m435.65625 391.425781c-4.707031 0-8.902344-3.339843-9.8125-8.132812l-17.242188-90.6875-69.035156 44.050781c-3.21875 2.054688-6.9375 3.144531-10.757812 3.144531h-145.617188c-3.820312 0-7.539062-1.085937-10.757812-3.144531l-69.035156-44.050781-17.242188 90.6875c-1.027344 5.425781-6.265625 8.984375-11.691406 7.957031-5.425782-1.03125-8.988282-6.265625-7.957032-11.691406l17.242188-90.691406c1.242188-6.523438 5.625-11.992188 11.726562-14.625 6.097657-2.632813 13.082032-2.070313 18.683594 1.503906l69.03125 44.054687h145.617188l69.03125-44.054687c5.601562-3.574219 12.585937-4.136719 18.6875-1.503906 6.097656 2.632812 10.480468 8.101562 11.722656 14.625l17.242188 90.691406c1.03125 5.425781-2.53125 10.660156-7.957032 11.691406-.632812.117188-1.261718.175781-1.878906.175781zm0 0"/><path d="m375.546875 264.675781c-3.589844 0-7.128906-1.023437-10.234375-2.964843l-39.574219-24.707032h-139.476562l-39.574219 24.707032c-3.101562 1.9375-6.640625 2.964843-10.234375 2.964843-5.757813 0-11.195313-2.558593-14.917969-7.015625-3.660156-4.382812-5.167968-10.148437-4.140625-15.816406l29.761719-164.230469c1.671875-9.214843 9.683594-15.902343 19.046875-15.902343h179.597656c9.363281 0 17.375 6.6875 19.042969 15.902343l29.765625 164.230469c1.027344 5.667969-.480469 11.433594-4.140625 15.816406-3.726562 4.457032-9.164062 7.015625-14.921875 7.015625zm-208.808594-182.964843-29.40625 162.265624 38.496094-24.039062c3.074219-1.917969 6.621094-2.933594 10.25-2.933594h139.84375c3.628906 0 7.175781 1.015625 10.25 2.9375l38.496094 24.035156-29.40625-162.265624zm0 0"/><path d="m375.527344 339.691406c-4.203125 0-8.246094 1.320313-11.699219 3.820313l-41.503906 30.074219h-132.644531l-41.511719-30.074219c-3.449219-2.5-7.496094-3.820313-11.695313-3.820313-11.046875 0-20.035156 8.980469-20.035156 20.019532v71.710937c0 15.175781 2.40625 29.804687 6.84375 43.53125 8.984375 5.457031 18.332031 10.371094 27.996094 14.707031-9.449219-17.300781-14.839844-37.160156-14.839844-58.242187l.003906-71.707031 44.128906 31.96875c1.707032 1.238281 3.757813 1.902343 5.867188 1.902343h139.128906c2.105469 0 4.160156-.664062 5.867188-1.902343l44.132812-31.964844v73.128906c0 20.445312-5.164062 39.707031-14.246094 56.554688 9.609376-4.34375 18.902344-9.265626 27.835938-14.71875 4.160156-13.214844 6.410156-27.265626 6.410156-41.835938v-73.132812c-.003906-11.039063-8.992187-20.019532-20.039062-20.019532zm0 0"/><path d="m256 463.363281c-49.464844 0-89.5625-40.097656-89.5625-89.5625v-73.410156c0-4.945313 4.007812-8.953125 8.953125-8.953125h161.21875c4.945313 0 8.953125 4.007812 8.953125 8.953125v73.410156c0 49.464844-40.097656 89.5625-89.5625 89.5625zm0 0"/></g><path d="m175.390625 291.4375c-4.945313 0-8.953125 4.007812-8.953125 8.953125v73.410156c0 49.464844 40.097656 89.5625 89.5625 89.5625v-171.925781zm0 0" fill="#e58b25"/><path d="m264.957031 237.695312h-17.914062c-19.785157 0-35.824219-16.039062-35.824219-35.824218s16.039062-35.824219 35.824219-35.824219h17.914062c19.785157 0 35.824219 16.039063 35.824219 35.824219s-16.039062 35.824218-35.824219 35.824218zm0 0" fill="#f9b721"/><path d="m251.21875 201.871094c0-15.929688 10.402344-29.425782 24.78125-34.082032-3.480469-1.128906-7.1875-1.742187-11.042969-1.742187h-17.914062c-19.785157 0-35.824219 16.039063-35.824219 35.824219s16.039062 35.828125 35.824219 35.828125h17.914062c3.855469 0 7.5625-.617188 11.042969-1.746094-14.378906-4.65625-24.78125-18.148437-24.78125-34.082031zm0 0" fill="#e58b25"/><path d="m295.878906 201.871094h-79.757812c-27.441406 0-49.683594 22.246094-49.683594 49.6875v30.921875c0 4.945312 4.007812 8.957031 8.953125 8.957031h38.105469c14.441406 0 27.613281 8.242188 33.921875 21.230469l8.582031 17.664062 8.582031-17.664062c6.308594-12.988281 19.480469-21.230469 33.921875-21.230469h38.105469c4.945313 0 8.953125-4.011719 8.953125-8.957031v-30.921875c0-27.441406-22.242188-49.6875-49.683594-49.6875zm0 0" fill="#ffcb47"/><path d="m196.4375 282.480469v-30.925781c0-27.4375 22.242188-49.683594 49.683594-49.683594h-30c-27.441406 0-49.683594 22.246094-49.683594 49.683594v30.925781c0 4.945312 4.007812 8.953125 8.953125 8.953125h30c-4.945313.003906-8.953125-4.007813-8.953125-8.953125zm0 0" fill="#f9b721"/><path d="m256 127.929688c-32.511719 0-58.964844-26.453126-58.964844-58.964844 0-32.511719 26.453125-58.964844 58.964844-58.964844 32.515625 0 58.964844 26.449219 58.964844 58.964844 0 32.511718-26.449219 58.964844-58.964844 58.964844zm0 0" fill="#f17b31"/><path d="m256 20c27 0 48.964844 21.964844 48.964844 48.964844s-21.964844 48.964844-48.964844 48.964844-48.964844-21.964844-48.964844-48.964844 21.964844-48.964844 48.964844-48.964844m0-20c-38.027344 0-68.964844 30.9375-68.964844 68.964844s30.9375 68.964844 68.964844 68.964844 68.964844-30.9375 68.964844-68.964844-30.9375-68.964844-68.964844-68.964844zm0 0" fill="#f9b721"/></svg>